<?xml version="1.0" encoding="utf-8"?>
<!-- Generator: Adobe Illustrator 27.4.1, SVG Export Plug-In . SVG Version: 6.00 Build 0)  -->
<svg version="1.1" id="Calque_1" xmlns="http://www.w3.org/2000/svg" xmlns:xlink="http://www.w3.org/1999/xlink" x="0px" y="0px"
	 viewBox="0 0 141.73 141.73" enable-background="new 0 0 141.73 141.73" xml:space="preserve">
<g>
	<path fill-rule="evenodd" clip-rule="evenodd" fill="#FFFFFF" d="M129.563,2.337c6.339,0,11.478,5.139,11.478,11.478v116.733
		c0,6.339-5.139,11.479-11.478,11.479H12.72c-6.339,0-11.478-5.14-11.478-11.479V13.815c0-6.339,5.139-11.478,11.478-11.478H129.563
		z"/>
	<path fill-rule="evenodd" clip-rule="evenodd" d="M33.801,20.17v2.456h4.616V20.17H33.801z M15.194,41.78
		c0,1.164-0.646,1.976-1.754,1.92v-3.767C14.529,39.897,15.194,40.691,15.194,41.78z M13.366,46.008
		c2.511,0,4.542-1.163,4.542-3.914c0-1.2-0.572-2.677-1.717-3.231c1.034-0.701,1.495-1.643,1.495-2.88
		c0-1.163-0.498-2.4-1.421-3.139c-0.886-0.72-1.809-0.757-2.88-0.757h-2.696v13.92H13.366z M15.083,36.038
		c0,1.052-0.609,1.754-1.643,1.754v-3.397C14.492,34.34,15.083,35.023,15.083,36.038z M19.525,32.087v13.92h5.631v-2.585h-2.88
		V32.087H19.525z M28.807,32.087l-3.23,13.92h2.732l0.498-2.345h2.788l0.517,2.345h2.936l-3.342-13.92H28.807z M31.188,41.485H29.25
		l0.591-3.711l0.295-2.105l0.351,2.105L31.188,41.485z M36.15,32.087v13.92h2.75V39.62l-0.148-1.976l3.434,8.363h2.603v-13.92h-2.75
		v6.259c0,0.72,0.055,1.44,0.221,2.104l-3.471-8.363H36.15z M53.67,32.18c-0.462-0.166-0.923-0.259-1.403-0.259
		c-3.748,0-6.037,3.545-6.037,6.998c0,3.655,2.197,7.237,6.166,7.237c0.443,0,0.868-0.074,1.274-0.24v-2.603
		c-0.351,0.111-0.702,0.203-1.053,0.203c-2.4,0-3.452-2.548-3.452-4.616c0-2.142,1.052-4.339,3.471-4.339
		c0.351,0,0.684,0.056,1.034,0.148V32.18z M10.689,13.622v13.92h2.751v-5.778h2.529v-2.585H13.44v-2.972h2.806v-2.585H10.689z
		 M17.956,13.622v13.92h5.576v-2.584h-2.825v-3.139h2.456v-2.585h-2.456v-3.027h2.788v-2.585H17.956z M27.937,27.542v-6.425
		l2.455,6.425h2.899l-2.418-6.332c1.366-0.757,1.975-2.068,1.975-3.6c0-3.803-3.139-3.988-4.893-3.988h-2.769v13.92H27.937z
		 M27.937,15.893c1.754-0.074,2.234,0.738,2.234,1.735c0,1.145-0.972,1.994-2.227,1.994L27.937,15.893z M13.298,1.432h115.687
		c7.158,0,12.962,5.803,12.962,12.961v115.579c0,7.157-5.804,12.96-12.962,12.96H13.298c-7.158,0-12.961-5.803-12.961-12.96V14.393
		C0.337,7.235,6.14,1.432,13.298,1.432z M118.12,86.315h-5.21v9.943c0,3.853-1.211,5.43-4.036,5.43c-2.421,0-3.339-1.541-3.339-4.66
		V86.315h-5.209v11.667c0,4.696,1.393,7.815,6.934,7.815c2.2,0,4.476-1.027,5.796-3.155l0.11,2.642h4.953V86.315z M91.019,105.283
		h5.209V79.088h-5.209V105.283z M74.816,92.148c0.184-2.055,1.469-2.861,3.449-2.861c1.834,0,3.375,0.33,3.375,2.568
		c0,2.127-2.972,2.017-6.163,2.494c-3.228,0.44-6.457,1.468-6.457,5.761c0,3.889,2.862,5.686,6.457,5.686
		c2.312,0,4.733-0.624,6.384-2.349c0.036,0.624,0.184,1.248,0.367,1.835h5.282c-0.476-0.771-0.659-2.495-0.659-4.219v-9.869
		c0-4.55-4.55-5.394-8.329-5.394c-4.255,0-8.622,1.467-8.915,6.347H74.816z M81.641,97.945c0,1.137-0.146,4.365-4.218,4.365
		c-1.688,0-3.192-0.477-3.192-2.421c0-1.908,1.468-2.458,3.082-2.788c1.614-0.293,3.448-0.33,4.328-1.101V97.945z M62.4,118.493
		c-4.949-6.603-7.882-14.807-7.882-23.691c0-21.834,17.7-39.534,39.534-39.534c8.561,0,16.487,2.722,22.96,7.346l4.934-4.967v14.628
		h-13.825c0,0,2.633-2.767,3.979-4.227c-5.15-3.482-11.359-5.515-18.047-5.515c-17.821,0-32.269,14.447-32.269,32.27
		c0,7.189,2.35,13.827,6.323,19.19L62.4,118.493z M66.017,132.018v-14.793h13.825c0,0-2.619,2.783-3.948,4.257
		c5.172,3.527,11.424,5.59,18.159,5.59c17.822,0,32.271-14.447,32.271-32.27c0-7.245-2.387-13.929-6.416-19.313l5.699-4.509
		c5.01,6.625,7.981,14.878,7.981,23.823c0,21.834-17.7,39.534-39.535,39.534c-8.55,0-16.471-2.715-22.939-7.331L66.017,132.018z
		 M58.687,72.331l-0.794,1.299c-4.098,0.347-9.17,0.553-14.662,0.553c-2.592,0-5.091-0.046-7.439-0.131v-1.229
		c2.348,0.085,4.847,0.131,7.439,0.131C49.083,72.954,54.459,72.721,58.687,72.331z M27.934,68.858
		c1.513,0.137,3.17,0.254,4.941,0.349v1.228c-1.771-0.094-3.428-0.211-4.941-0.348V68.858z M27.934,72.346
		c1.513,0.137,3.17,0.254,4.941,0.348v1.229c-1.771-0.094-3.428-0.211-4.941-0.349V72.346z M27.934,75.832
		c1.513,0.137,3.17,0.254,4.941,0.349v1.229c-1.771-0.095-3.428-0.212-4.941-0.349V75.832z M27.934,96.379
		c1.513,0.138,3.17,0.256,4.941,0.349v1.229c-1.771-0.093-3.428-0.211-4.941-0.349V96.379z M27.934,99.866
		c1.513,0.138,3.17,0.255,4.941,0.349v1.229c-1.771-0.094-3.428-0.212-4.941-0.349V99.866z M27.934,103.353
		c1.513,0.138,3.17,0.255,4.941,0.35v1.229c-1.771-0.095-3.428-0.212-4.941-0.35V103.353z M43.231,76.44
		c4.931,0,9.524-0.165,13.377-0.451l-0.614,1.272c-3.724,0.259-8.091,0.407-12.763,0.407c-2.592,0-5.091-0.046-7.439-0.13v-1.229
		C38.14,76.395,40.639,76.44,43.231,76.44z M43.231,96.988c3.166,0,6.192-0.068,8.972-0.192l0.076,1.225
		c-2.801,0.127-5.854,0.196-9.048,0.196c-2.592,0-5.091-0.046-7.439-0.131v-1.229C38.14,96.942,40.639,96.988,43.231,96.988z
		 M43.231,100.475c3.283,0,6.415-0.072,9.279-0.206l0.177,1.221c-2.912,0.138-6.106,0.214-9.457,0.214
		c-2.592,0-5.091-0.045-7.439-0.13v-1.229C38.14,100.43,40.639,100.475,43.231,100.475z M43.231,103.962
		c3.513,0,6.854-0.084,9.879-0.235l0.283,1.213c-3.099,0.162-6.539,0.251-10.162,0.251c-2.592,0-5.091-0.046-7.439-0.13v-1.229
		C38.14,103.916,40.639,103.962,43.231,103.962z M21.814,54.438c4.249,0.851,12.249,1.423,21.417,1.423
		c9.169,0,17.168-0.573,21.418-1.423C60.4,53.587,52.4,53.014,43.231,53.014C34.063,53.014,26.063,53.587,21.814,54.438z
		 M62.637,49.832c4.038,2.908,12.248-1.588,18.336-10.042c6.089-8.456,7.751-17.667,3.714-20.575
		c-4.039-2.908-12.248,1.589-18.337,10.043C60.262,37.712,58.599,46.924,62.637,49.832z M43.231,116.353
		c5.375,0,10.348-0.401,14.399-0.834c0.58,1.019,1.202,2.01,1.863,2.972c-4.341,0.533-10.032,1.009-16.262,1.009
		c-13.589,0-24.61-1.61-24.658-3.165V53.221c0.512-1.618,11.355-2.824,24.658-2.824C51.284,50.398,54.929,50.66,59,51
		c-0.508-0.761-1.253-1.351-2.127-1.673c0.669-0.762,1.075-1.761,1.075-2.855c0-1.28-0.576-2.405-1.46-3.198
		c1.498-0.68,2.54-2.189,2.54-3.941c0-0.965-0.354-1.86-0.888-2.58c2.023-0.363,3.558-2.132,3.558-4.259
		c0-0.69-0.183-1.366-0.471-1.945c2.312-0.088,4.16-1.99,4.16-4.324c0-0.503-0.077-0.951-0.235-1.4
		c2.887,0.028,4.825-1.909,4.825-4.298c0.291-0.578,0.646-0.533,1.012-0.533c2.305,0,4.162-1.774,4.29-4.047
		c0.553,0.254,1.166,0.397,1.815,0.397c1.832,0,3.373-1.084,4.005-2.692c0.779,0.757,1.843,1.223,3.015,1.223
		c0.927,0,1.785-0.292,2.489-0.788c0.291,1.901,1.804,3.366,3.723,3.603c-0.432,0.673-0.672,1.478-0.672,2.336
		c0,1.494,0.703,2.765,1.854,3.543c-1.319,0.741-2.213,2.154-2.213,3.776c0,1.058,0.366,2.001,0.996,2.753
		c-1.896,0.458-3.305,2.168-3.305,4.206c0,0.801,0.227,1.546,0.606,2.19c-2.264,0.139-4.057,2.019-4.057,4.318
		c0,0.529,0.075,1.031,0.247,1.499c-2.629-0.006-4.566,1.931-4.566,4.32c0,0.339,0.086,0.667,0.159,0.984
		c-0.327-0.079-0.669-0.122-1.022-0.122c-2.39,0-4.31,1.882-4.31,4.271c-0.479-0.182-0.996-0.282-1.54-0.282
		c-1.377,0-3.866,0.568-4.66,1.563l0.035,9.041c-1.083,0.868-2.122,1.787-3.112,2.756v-7.283
		c-4.218,0.863-12.281,1.447-21.535,1.447c-9.253,0-17.316-0.583-21.534-1.447v10.46c1.159,0.237,2.609,0.453,4.295,0.642v1.229
		c-1.686-0.189-3.136-0.405-4.295-0.643v2.258c1.159,0.237,2.609,0.454,4.295,0.643v1.228c-1.686-0.187-3.136-0.404-4.295-0.642
		v2.259c1.159,0.237,2.609,0.453,4.295,0.642v1.229c-1.686-0.188-3.136-0.404-4.295-0.642v19.318
		c1.159,0.238,2.609,0.454,4.295,0.643v1.229c-1.686-0.188-3.136-0.404-4.295-0.643v2.259c1.159,0.237,2.609,0.453,4.295,0.642
		v1.229c-1.686-0.188-3.136-0.404-4.295-0.642v2.258c1.159,0.237,2.609,0.454,4.295,0.643v1.229
		c-1.686-0.188-3.136-0.405-4.295-0.642v10.809C25.915,115.416,33.978,116.353,43.231,116.353z M82.147,23.072
		c3.23,2.814,0.253,10.634-3.19,15.33c-5.042,6.875-11.314,10.356-14.276,7.149c-2.641-2.862-0.449-9.933,3.773-15.907
		C72.117,24.461,78.789,20.145,82.147,23.072z M65.531,44.767c1.922,2.082,7.209,0.16,12.494-7.048
		c3.626-4.943,5.687-11.75,3.364-13.775c-2.327-2.028-8.17,0.961-11.99,6.368C65.063,36.446,63.597,42.671,65.531,44.767z
		 M60.355,69.904c-4.436,0.49-10.472,0.791-17.124,0.791c-2.592,0-5.091-0.046-7.439-0.131v-1.229
		c2.348,0.085,4.847,0.131,7.439,0.131c7.189,0,13.659-0.352,18.167-0.914L60.355,69.904z M128.985,3.029
		c6.276,0,11.364,5.088,11.364,11.364v115.579c0,6.276-5.088,11.363-11.364,11.363H13.298c-6.276,0-11.364-5.087-11.364-11.363
		V14.393c0-6.276,5.088-11.364,11.364-11.364H128.985z"/>
</g>
</svg>
