<?xml version="1.0" encoding="utf-8"?>
<!-- Generator: Adobe Illustrator 27.4.1, SVG Export Plug-In . SVG Version: 6.00 Build 0)  -->
<svg version="1.1" xmlns="http://www.w3.org/2000/svg" xmlns:xlink="http://www.w3.org/1999/xlink" x="0px" y="0px"
	 viewBox="0 0 141.732 141.732" enable-background="new 0 0 141.732 141.732" xml:space="preserve">
<g id="Calque_1">
	<path fill-rule="evenodd" clip-rule="evenodd" fill="#FFFFFF" d="M129.261,1.054c6.337,0,11.473,5.136,11.473,11.473v116.68
		c0,6.336-5.137,11.473-11.473,11.473H12.471c-6.336,0-11.473-5.136-11.473-11.473V12.526c0-6.337,5.137-11.473,11.473-11.473
		H129.261z"/>
	<g>
		<path fill-rule="evenodd" clip-rule="evenodd" d="M125.052,9.779l-1.254,1.392h1.937l1.695-1.392H125.052z M22.833,11.911
			l-3.316,14.287h2.804l0.511-2.407h2.861l0.531,2.407h3.013l-3.43-14.287H22.833z M25.277,21.556h-1.99l0.606-3.809l0.303-2.16
			l0.36,2.16L25.277,21.556z M32.916,26.198v-5.893l0.625,0.038c2.615,0,4.339-1.535,4.339-4.207c0-4.604-4.244-4.225-4.851-4.225
			h-2.937v14.287H32.916z M32.916,14.242c1.743,0,2.141,0.834,2.141,1.857c0,1.459-0.777,1.971-2.141,1.914V14.242z M44.913,12.385
			c-0.777-0.455-1.592-0.701-2.501-0.701c-2.425,0-3.733,1.952-3.733,4.207c0,2.084,1.004,3.145,2.634,4.244
			c0.796,0.569,1.667,0.985,1.667,2.084c0,0.948-0.72,1.554-1.63,1.554c-0.834,0-1.478-0.303-2.141-0.758v2.691
			c0.644,0.474,1.629,0.72,2.425,0.72c2.653,0,4.112-1.914,4.112-4.453c0-3.865-4.301-3.998-4.301-6.348
			c0-0.872,0.549-1.402,1.421-1.402c0.777,0,1.478,0.417,2.046,0.909V12.385z M47.02,11.911v10.611c0,2.672,1.573,3.903,4.207,3.903
			c4.074,0,4.244-2.577,4.244-4.093V11.911h-2.823v9.853c-0.019,1.061-0.019,2.103-1.402,2.103c-1.535,0-1.402-1.63-1.402-2.71
			v-9.247H47.02z M57.128,11.911v14.287h5.779v-2.653h-2.956V11.911H57.128z M63.914,11.911v14.287h5.722v-2.653h-2.899v-3.221h2.52
			v-2.653h-2.52v-3.108h2.861v-2.653H63.914z M77.312,12.385c-0.777-0.455-1.592-0.701-2.501-0.701
			c-2.425,0-3.733,1.952-3.733,4.207c0,2.084,1.004,3.145,2.634,4.244c0.796,0.569,1.667,0.985,1.667,2.084
			c0,0.948-0.72,1.554-1.629,1.554c-0.834,0-1.478-0.303-2.141-0.758v2.691c0.644,0.474,1.629,0.72,2.425,0.72
			c2.653,0,4.112-1.914,4.112-4.453c0-3.865-4.301-3.998-4.301-6.348c0-0.872,0.55-1.402,1.421-1.402
			c0.777,0,1.478,0.417,2.047,0.909V12.385z M104.093,12.005c-0.474-0.17-0.947-0.265-1.44-0.265c-3.847,0-6.196,3.638-6.196,7.181
			c0,3.752,2.255,7.428,6.329,7.428c0.455,0,0.891-0.076,1.307-0.246v-2.672c-0.36,0.114-0.72,0.208-1.08,0.208
			c-2.463,0-3.543-2.615-3.543-4.737c0-2.198,1.08-4.453,3.562-4.453c0.36,0,0.701,0.057,1.061,0.152V12.005z M107.717,11.911
			l-3.316,14.287h2.804l0.512-2.407h2.861l0.53,2.407h3.013l-3.43-14.287H107.717z M110.162,21.556h-1.989l0.606-3.809l0.303-2.16
			l0.36,2.16L110.162,21.556z M114.978,11.911v14.287h2.823v-5.931h2.596v-2.653h-2.596v-3.051h2.88v-2.653H114.978z
			 M122.159,11.911v14.287h5.722v-2.653h-2.899v-3.221h2.52v-2.653h-2.52v-3.108h2.861v-2.653H122.159z M12.973,0h115.793
			c7.165,0,12.973,5.808,12.973,12.973v115.683c0,7.165-5.808,12.973-12.973,12.973H12.973C5.808,141.63,0,135.821,0,128.656V12.973
			C0,5.808,5.808,0,12.973,0z M128.766,1.598c6.282,0,11.375,5.093,11.375,11.375v115.683c0,6.282-5.093,11.375-11.375,11.375
			H12.973c-6.282,0-11.375-5.093-11.375-11.375V12.973c0-6.282,5.093-11.375,11.375-11.375H128.766z M19.208,12.005
			c-0.474-0.17-0.947-0.265-1.44-0.265c-3.847,0-6.196,3.638-6.196,7.181c0,3.752,2.255,7.428,6.329,7.428
			c0.455,0,0.89-0.076,1.307-0.246v-2.672c-0.36,0.114-0.72,0.208-1.08,0.208c-2.463,0-3.543-2.615-3.543-4.737
			c0-2.198,1.08-4.453,3.562-4.453c0.36,0,0.701,0.057,1.061,0.152V12.005z M88.899,15.56v10.642h4.263v-1.976h-2.159v-2.399h1.877
			v-1.976h-1.877v-2.315h2.131V15.56H88.899z M83.526,24.311v-6.86c1.736,0,2.159,2.145,2.159,3.5
			C85.686,22.279,85.22,24.396,83.526,24.311z M83.301,26.203c3.317,0,4.488-2.202,4.488-5.237c0-5.942-4.404-5.406-4.771-5.406
			h-1.595v10.642H83.301z"/>
		<path fill-rule="evenodd" clip-rule="evenodd" d="M18.959,56.484l8.941-7.251h12.172l8.941,7.251H29.797l1.845-6.648l-1.539-0.004
			l-4.429,6.651H18.959z M14.814,86.571l3.8-29.375h6.945l-3.972,29.411h6.009l2.142-29.411h19.62l3.8,29.375h3.887
			c0.99,0,1.793,0.704,1.793,1.573c0,0.869-0.803,1.573-1.793,1.573H10.927c-0.99,0-1.793-0.704-1.793-1.573
			c0-0.869,0.803-1.573,1.793-1.573H14.814z"/>
		<path fill-rule="evenodd" clip-rule="evenodd" d="M104.274,116.219c-0.255-2.39-2.866-4.343-7.067-5.696
			c-3.282-11.159-14.991-18.684-27.988-17.296c-12.925,1.381-22.74,11.109-23.686,22.624c-4.086,2.271-6.402,4.822-6.137,7.299
			c0.632,5.912,15.667,9.154,33.583,7.239C90.894,128.476,104.905,122.131,104.274,116.219z M86.371,101.258
			c4.368,4.38,7.496,10.063,8.133,13.669c0.274,1.548-0.83,2.254-0.83,2.254c-0.523,0.2-1.004,0.157-1.393-0.102
			c0.127-0.02,0.256-0.05,0.388-0.101c0,0,1.572-0.57,0.83-2.76c-0.318-0.936-0.784-2.539-1.369-3.693
			c-1.935-3.819-4.198-6.99-7.419-10.022c-0.535-0.504-1.078-0.948-1.939-1.423C83.86,99.021,85.628,100.513,86.371,101.258z
			 M77.407,103.268c2.578,5.443,4.285,11.041,5.06,16.515c0.305,2.156-1.682,2.745-1.682,2.745
			c-0.607,0.077-1.094-0.117-1.411-0.532c0.248,0.094,0.534,0.121,0.85,0.073c0,0,1.48-0.464,1.293-2.024
			c-0.905-6.81-4.047-15.351-5.273-17.506c-0.315-0.544-0.528-1.027-0.841-1.282C75.928,101.297,76.679,102.058,77.407,103.268z
			 M64.91,104.36c0.156-0.828,0.747-1.642,1.131-1.821c-0.618,2.111-0.769,4.949-0.809,5.905c-0.239,5.798-0.372,8.64,0.546,13.546
			c0.136,0.752,0.722,1.579,1.597,1.573c0.309-0.002,0.595-0.097,0.837-0.252c-0.225,0.588-0.787,1.01-1.455,1.02
			c-0.875,0.013-1.685-0.941-1.861-1.561C63.778,117.023,64.201,108.132,64.91,104.36z M51.621,121.031
			c-0.042-6.77,1.205-10.841,3.741-16.179c0.871-1.835,2.505-2.637,2.525-2.634c-0.687,0.699-1.118,1.395-1.406,2.001
			c-2.652,5.586-4.015,9.65-3.973,16.421c-0.068,0.833,0.392,1.692,1.251,1.86c0.16,0.031,0.317,0.03,0.471,0.013
			c-0.357,0.319-0.851,0.478-1.358,0.379C52.013,122.722,51.591,122.163,51.621,121.031z M72.681,127.61
			c-16.135,1.724-31.803-1.113-30.245-6.52c0.394-1.367,1.252-2.201,3.019-3.265c-0.073,1.203-0.49,3.58,0.517,5.233
			c3.555,3.51,16.756,4.094,26.343,3.069c10.1-1.079,24.108-5.408,25.799-9.482c0.392-1.934-0.305-3.55-0.439-4.216
			c1.728,0.789,2.431,1.317,3.19,2.417C103.71,118.964,88.816,125.886,72.681,127.61z"/>
		<g>
			<path d="M133.143,63.183c-1.704,14.647-19.595,22.965-40.192,20.569s-36-14.934-34.144-29.246
				c1.473-11.362,17.345-18.322,38.013-16.654C115.075,39.324,134.534,51.227,133.143,63.183z"/>
			<path fill="#FFFFFF" d="M97.935,40.659c-17.063-1.985-31.829,4.435-32.981,14.339C63.802,64.902,76.7,75.045,93.762,77.03
				c17.063,1.985,31.829-4.941,32.981-14.845C127.895,52.282,114.997,42.644,97.935,40.659z M125.984,62.186
				c-0.145,1.305-0.672,2.614-1.516,3.881c-1.131-1.45-9.068-11.264-28.638-14.096c0,0,19.881,4.944,26.504,16.593
				c-5.497,5.196-16.504,8.958-28.668,7.269c-15.226-2.115-28.784-10.513-27.7-20.835c1.041-9.916,15.977-15.734,31.969-13.833
				C114.992,43.193,127.084,52.276,125.984,62.186z"/>
		</g>
	</g>
</g>
<g id="Calque_2">
</g>
</svg>
