<?xml version="1.0" encoding="utf-8"?>
<!-- Generator: Adobe Illustrator 27.4.1, SVG Export Plug-In . SVG Version: 6.00 Build 0)  -->
<svg version="1.1" id="Calque_1" xmlns="http://www.w3.org/2000/svg" xmlns:xlink="http://www.w3.org/1999/xlink" x="0px" y="0px"
	 viewBox="0 0 141.732 141.732" enable-background="new 0 0 141.732 141.732" xml:space="preserve">
<path fill-rule="evenodd" clip-rule="evenodd" fill="#FFFFFF" d="M129.352,1.054c6.337,0,11.473,5.136,11.473,11.473v116.68
	c0,6.336-5.137,11.473-11.473,11.473H12.562c-6.336,0-11.473-5.136-11.473-11.473V12.526c0-6.337,5.137-11.473,11.473-11.473
	H129.352z"/>
<g>
	<g>
		<path d="M128.753-0.03H12.98c-7.164,0-12.971,5.815-12.971,12.988v115.816c0,7.173,5.807,12.988,12.971,12.988h115.773
			c7.164,0,12.971-5.815,12.971-12.988V12.958C141.724,5.785,135.916-0.03,128.753-0.03z M140.126,128.774
			c0,6.289-5.092,11.388-11.373,11.388H12.98c-6.281,0-11.373-5.098-11.373-11.388V12.958c0-6.289,5.092-11.388,11.373-11.388
			h115.773c6.281,0,11.373,5.098,11.373,11.388V128.774z"/>
		<path d="M19.453,42.599l0.498-2.341h2.784l0.516,2.341h2.931l-1.319-5.495l-1.372-5.717l-0.645-2.689h-2.895l-0.624,2.689
			L18,37.104h0l-1.275,5.495H19.453z M22.329,38.082h-1.936l0.156-0.978l0.434-2.727l0.295-2.102l0.35,2.102l0.516,2.727
			L22.329,38.082z"/>
		<path d="M55.673,37.104V36.22l-0.017-0.572l-0.116-1.401l1.055,2.856l2.031,5.495h2.34v-5.495v-5.717v-2.689h-2.472v2.689v3.561
			c0,0.719,0.05,1.438,0.199,2.102l-2.115-5.663l-1.004-2.689h-2.373v2.689v5.717v0v5.495h2.472V37.104"/>
		<path d="M51.212,31.388L51.212,31.388v-0.001c-0.819-2.064-2.263-2.91-3.715-2.91c-1.452,0-2.896,0.846-3.715,2.91h0
			c-0.426,1.074-0.682,2.477-0.682,4.262c0,0.516,0.021,1.001,0.062,1.454l0.001,0.001h-0.001c0.371,4.13,2.346,5.717,4.335,5.717
			c1.988,0,3.963-1.586,4.335-5.717h0c0.041-0.455,0.062-0.939,0.062-1.455C51.894,33.864,51.637,32.462,51.212,31.388z
			 M49.189,37.104L49.189,37.104c-0.135,1.422-0.534,3.172-1.693,3.172c-1.158,0-1.558-1.751-1.692-3.171h-0.001l0.001-0.001
			c-0.056-0.593-0.066-1.129-0.066-1.455c0-0.987,0.074-3.352,0.942-4.262h0.001c0.218-0.229,0.486-0.366,0.816-0.366
			c0.33,0,0.598,0.137,0.816,0.365l0.001,0.001h-0.001c0.869,0.909,0.943,3.274,0.943,4.262
			C49.256,35.975,49.245,36.51,49.189,37.104z"/>
		<path d="M29.846,37.104v-0.92l0.352,0.92h0l2.1,5.495h2.895l-2.099-5.495 M33.094,37.104l-0.316-0.828
			c1.364-0.756,1.973-2.065,1.973-3.595c0-0.489-0.052-0.918-0.146-1.294h0c-0.638-2.548-3.213-2.688-4.739-2.688h-2.765v2.689
			v5.717v0v5.495h2.747v-5.495 M29.846,30.966h0.369c0.659-0.035,1.113,0.131,1.407,0.422h0c0.323,0.32,0.454,0.79,0.454,1.311
			c0,1.143-0.498,1.991-1.751,1.991l-0.479-0.018v-3.285V30.966z"/>
		<path d="M23.548,9.729h-2.895L17.427,23.63h2.728l0.498-2.341h2.784l0.516,2.341h2.931L23.548,9.729z M21.096,19.113l0.59-3.706
			l0.295-2.102l0.35,2.102l0.701,3.706H21.096z"/>
		<path d="M15.196,31.169c0.333,0,0.648,0.055,0.981,0.147V28.79c-0.438-0.166-0.876-0.258-1.331-0.258
			c-2.059,0-3.653,1.187-4.631,2.855C9.503,32.6,9.118,34.068,9.118,35.52c0,0.533,0.044,1.064,0.132,1.583l0.001,0.001H9.25
			c0.512,3.034,2.502,5.643,5.718,5.643c0.42,0,0.823-0.074,1.209-0.24v-2.599c-0.333,0.111-0.665,0.203-0.998,0.203
			c-1.704,0-2.692-1.424-3.081-3.007c-0.131-0.532-0.194-1.083-0.194-1.602c0-1.735,0.657-3.507,2.13-4.113H14.03l0.004-0.001
			C14.376,31.247,14.763,31.169,15.196,31.169z"/>
		<path d="M13.063,9.729h-2.858V23.63h2.747v-5.734l0.609,0.037c2.544,0,4.222-1.494,4.222-4.093
			C17.783,9.36,13.653,9.729,13.063,9.729z M12.952,15.665v-3.669h0.516c1.18,0,1.567,0.811,1.567,1.807
			C15.036,15.223,14.28,15.72,12.952,15.665z"/>
		<rect x="36.959" y="9.729" width="2.747" height="13.901"/>
		<polyline points="40.589,31.387 40.589,31.279 42.764,31.279 42.764,28.698 35.685,28.698 35.685,31.279 37.842,31.279 
			37.842,31.387 37.842,31.387 37.842,37.104 37.842,37.104 37.842,42.599 40.589,42.599 40.589,37.104 		"/>
		<line x1="40.589" y1="37.104" x2="40.589" y2="31.387"/>
		<polygon points="47.411,21.049 44.59,21.049 44.59,17.914 47.042,17.914 47.042,15.333 44.59,15.333 44.59,12.31 47.374,12.31 
			47.374,9.729 41.843,9.729 41.843,23.63 47.411,23.63 		"/>
		<path d="M57.341,23.63l-2.415-6.323c1.364-0.756,1.973-2.065,1.973-3.595c0-3.798-3.134-3.982-4.885-3.982h-2.765V23.63h2.747
			v-6.416l2.452,6.416H57.341z M52.474,15.72l-0.479-0.018v-3.706h0.369c1.383-0.074,1.862,0.737,1.862,1.733
			C54.225,14.872,53.728,15.72,52.474,15.72z"/>
		<path d="M30.733,17.896l0.608,0.037c2.544,0,4.222-1.494,4.222-4.093c0-4.48-4.13-4.111-4.72-4.111h-2.858V23.63h2.747V17.896z
			 M30.733,11.996h0.516c1.18,0,1.567,0.811,1.567,1.807c0,1.42-0.756,1.917-2.083,1.862V11.996z"/>
	</g>
	<g>
		<path fill-rule="evenodd" clip-rule="evenodd" d="M91.722,116.234l2.312-1.373l-1.349,10.087l-9.417-3.567l2.271-1.468
			c-0.484-0.99-1.005-1.907-1.534-2.751l-30.23,18.543l-0.011-0.076l-12.941-18.719l-6.458,0.046l-6.254-7.228
			c-1.105,0.7-2.308,1.602-3.605,2.761l1.331,1.519l-8.216,0.585l1.749-8.024l1.412,1.558c1.363-1.079,2.587-1.936,3.684-2.611
			l-7.853-9.076l16.254,1.226l14.033,14.699L34.099,93.922l-7.053-14.105l18.199-6.475c-0.502-1.143-1.177-2.437-2.077-3.895
			l-2.135,0.771l2.533-5.371l7.237,2.384l-1.979,0.575c0.957,1.275,1.681,2.433,2.199,3.48l13.64-4.853l6.587,12.136l0.576,22.036
			l0.114,0.087l6.375-18.456l8.802-11.274l5.946,3.782c0.899-0.819,2.066-1.702,3.575-2.637l-1.74-1.182l7.754-0.321l0.698,6.068
			l-1.876-1.28c-1.41,0.887-2.519,1.742-3.39,2.547l9.918,6.31l-8.896,8.974l4.732-1.337l-11.936,6.821l-3.088,12.886
			C89.737,112.904,90.708,114.439,91.722,116.234L91.722,116.234z M83.425,116.268c-0.635-0.945-1.266-1.788-1.847-2.531
			c-2.407-3.256-4.569-4.829-6.225-5.573l-16.393,9.368l-7.172-0.519l2.353,17.215L83.425,116.268L83.425,116.268z M73.92,107.675
			c-1.202-0.275-1.71-0.084-1.71-0.084l5.556-3.065c0,0,0.66-0.558,2.227-0.299l16.058-9.118l-3.698,1.026l-15.667,8.225
			l-22.077,11.845l3.923,0.208L73.92,107.675L73.92,107.675z M81.471,104.668c1.698,0.719,3.902,2.35,6.521,5.802l2.67-11.055
			L81.471,104.668L81.471,104.668z M51.461,72.263c1.536,3.815,0.261,5.905,0.261,5.905l-5.662,2.684c0,0,1.41-1.763-0.409-6.522
			l-17.112,6.088l6.434,12.573L70.036,78.51l-5.873-10.766L51.461,72.263L51.461,72.263z M70.184,79.644l-34.586,14.36
			l12.345,17.974l22.809-10.862L70.184,79.644L70.184,79.644z M42.009,116.921l10.593,15.182l-2.085-15.262L42.009,116.921
			L42.009,116.921z M76.07,103.826l16.165-8.509l2.532-0.772L79,83.483l-6.142,17.845L76.07,103.826L76.07,103.826z M97.306,78.709
			c-3.034,3.239-2.219,5.501-2.219,5.501l-4.694-3.367c0,0-1.199-2.073,1.886-5.332l-4.916-3.127l-8.011,10.17l16.67,11.62
			l0.982-0.31l9.309-9.424L97.306,78.709L97.306,78.709z M25.402,104.967c5.783-3.237,7.614-1.086,7.614-1.086l3.66,3.899
			c0,0-2.716-1.366-7.634,1.394l5.809,6.714l13.71-0.098l-2.306-2.556L32.38,98.7l-13.267-1.001L25.402,104.967L25.402,104.967z"/>
	</g>
	<g>
		<g>
			<rect x="94.141" y="26.461" width="24.272" height="1.003"/>
			<rect x="94.141" y="32.755" width="24.272" height="1.003"/>
		</g>
		<path d="M127.294,16.096v-3.95H90.967v6.561h-2.891v19.104l-23.006,4.15l4.374,23.927l18.632-3.384v3.93h22.951l2.984-2.611
			h16.931V16.096H127.294z M92.097,13.334h34.068v45.48h-6.21l4.322-3.627V18.834h-32.18V13.334z M101.801,36.484L86.328,53.709
			L67.034,42.755L101.801,36.484z M102.542,36.905l3.698,20.502L91.63,49.195L102.542,36.905z M66.498,43.41l14.396,8.232
			L70.179,63.818L66.498,43.41z M70.851,64.381l10.82-12.295l4.903,2.804l4.461-5.024l14.647,8.233L70.851,64.381z M109.841,65.375
			H89.205V62.07l18.342-3.308l-2.24-12.417h13.106v-1.003h-13.287l-0.954-5.291h14.241v-1.003h-14.422l-0.691-3.834l-14.095,2.542
			V19.895h34.068v34.288h-13.432V65.375z M110.806,65.246V55.057h12.209L110.806,65.246z M129.812,62.764h-14.564l3.595-3.018h8.324
			V17.284h2.645V62.764z"/>
	</g>
</g>
</svg>
