<?xml version="1.0" encoding="utf-8"?>
<!-- Generator: Adobe Illustrator 27.4.1, SVG Export Plug-In . SVG Version: 6.00 Build 0)  -->
<svg version="1.1" id="Calque_1" xmlns="http://www.w3.org/2000/svg" xmlns:xlink="http://www.w3.org/1999/xlink" x="0px" y="0px"
	 viewBox="0 0 141.73 141.73" enable-background="new 0 0 141.73 141.73" xml:space="preserve">
<g>
	<path fill-rule="evenodd" clip-rule="evenodd" fill="#FFFFFF" d="M129.363,0.904c6.331,0,11.463,5.132,11.463,11.463v116.582
		c0,6.331-5.132,11.463-11.463,11.463H12.672c-6.331,0-11.463-5.132-11.463-11.463V12.367c0-6.331,5.132-11.463,11.463-11.463
		H129.363z"/>
	<path fill-rule="evenodd" clip-rule="evenodd" d="M90.188,12.298c-0.461-0.167-0.923-0.258-1.402-0.258
		c-3.746,0-6.033,3.542-6.033,6.992c0,3.653,2.195,7.233,6.162,7.233c0.443,0,0.867-0.074,1.273-0.24v-2.602
		c-0.351,0.11-0.701,0.203-1.052,0.203c-2.398,0-3.45-2.546-3.45-4.612c0-2.14,1.052-4.336,3.469-4.336
		c0.351,0,0.683,0.055,1.033,0.148V12.298z M91.146,12.206v10.332c0,2.601,1.531,3.801,4.096,3.801c3.967,0,4.133-2.509,4.133-3.985
		V12.206h-2.749V21.8c-0.019,1.033-0.019,2.048-1.365,2.048c-1.495,0-1.365-1.587-1.365-2.639v-9.003H91.146z M100.889,12.206
		v13.911h2.749V12.206H100.889z M110.752,12.667c-0.756-0.443-1.55-0.683-2.435-0.683c-2.361,0-3.634,1.9-3.634,4.096
		c0,2.029,0.978,3.062,2.564,4.133c0.775,0.553,1.623,0.959,1.623,2.029c0,0.923-0.701,1.513-1.587,1.513
		c-0.812,0-1.439-0.295-2.085-0.738v2.62c0.627,0.461,1.586,0.701,2.361,0.701c2.583,0,4.004-1.863,4.004-4.336
		c0-3.764-4.188-3.893-4.188-6.181c0-0.849,0.535-1.365,1.384-1.365c0.757,0,1.439,0.406,1.993,0.885V12.667z M112.494,12.206
		v13.911h2.749V12.206H112.494z M116.733,12.206v13.911h2.749v-6.384l-0.019-0.572l-0.129-1.402l3.432,8.358h2.602V12.206h-2.749
		v6.254c0,0.72,0.055,1.439,0.221,2.104l-3.469-8.358H116.733z M126.794,12.206v13.911h5.572v-2.583h-2.823v-3.136h2.454v-2.583
		h-2.454v-3.026h2.786v-2.583H126.794z M21.866,10.065l-1.249,1.386h1.928l1.687-1.386H21.866z M75.1,15.522v10.595h4.244v-1.967
		h-2.15V21.76h1.869v-1.967h-1.869v-2.304h2.122v-1.967H75.1z M70.065,24.233v-6.829c1.642,0,2.042,2.136,2.042,3.485
		C72.107,22.21,71.666,24.317,70.065,24.233z M69.851,26.116c3.137,0,4.245-2.192,4.245-5.213c0-5.916-4.165-5.382-4.512-5.382
		h-1.508v10.595H69.851z M63.831,12.672c-0.756-0.442-1.549-0.682-2.435-0.682c-2.36,0-3.633,1.899-3.633,4.094
		c0,2.028,0.978,3.061,2.563,4.131c0.774,0.553,1.623,0.959,1.623,2.028c0,0.922-0.701,1.512-1.586,1.512
		c-0.811,0-1.438-0.295-2.084-0.738v2.619c0.627,0.461,1.586,0.701,2.361,0.701c2.582,0,4.002-1.863,4.002-4.334
		c0-3.762-4.186-3.891-4.186-6.178c0-0.849,0.535-1.365,1.383-1.365c0.756,0,1.438,0.406,1.992,0.885V12.672z M50.265,12.211v2.582
		h2.158v11.323h2.748V14.793h2.176v-2.582H50.265z M43.827,12.211v13.905h5.569v-2.582h-2.822v-3.135h2.453v-2.581h-2.453v-3.024
		h2.785v-2.582H43.827z M34.143,12.211v13.905h2.61v-5.883h2.646v5.883h2.61V12.211h-2.61v5.44h-2.646v-5.44H34.143z M32.897,12.303
		c-0.438-0.166-0.876-0.258-1.332-0.258c-3.556,0-5.729,3.541-5.729,6.989c0,3.652,2.085,7.229,5.852,7.229
		c0.42,0,0.823-0.074,1.209-0.24v-2.601c-0.333,0.111-0.666,0.203-0.999,0.203c-2.277,0-3.276-2.545-3.276-4.61
		c0-2.139,0.999-4.334,3.294-4.334c0.333,0,0.648,0.055,0.981,0.148V12.303z M19.22,12.211v13.905h5.569v-2.582h-2.821v-3.135h2.453
		v-2.581h-2.453v-3.024h2.785v-2.582H19.22z M12.585,23.645v-8.962c2.155,0,2.681,2.803,2.681,4.574
		C15.266,20.989,14.687,23.755,12.585,23.645z M12.305,26.116c4.117,0,5.571-2.877,5.571-6.842c0-7.764-5.466-7.064-5.921-7.064
		h-1.98v13.905H12.305z M13.249,0h115.537c7.149,0,12.944,5.795,12.944,12.944v115.428c0,7.149-5.795,12.944-12.944,12.944H13.249
		c-7.149,0-12.944-5.795-12.944-12.944V12.944C0.305,5.795,6.1,0,13.249,0z M128.786,1.595c6.269,0,11.35,5.081,11.35,11.35v115.428
		c0,6.268-5.081,11.35-11.35,11.35H13.249c-6.269,0-11.35-5.082-11.35-11.35V12.944c0-6.268,5.081-11.35,11.35-11.35H128.786z
		 M21.689,92.824l8.196-9.935l3.221,14.836l9.3-17.171l6.789,15.382l5.749-10.493l0.04,1.822c0,15.73-8.63,27.597-18.396,27.597
		c-9.766,0-18.397-11.867-18.397-27.597L21.689,92.824z M56.146,80.701l-0.117-0.747l-6.675,12.184l-4.007-9.079
		c2.594-3.062,6.366-5.683,10.99-7.399l8.343,3.099l-8.119,5.743C56.479,83.209,56.34,81.94,56.146,80.701z M56.625,88.721
		l10.574,3.867l-10.664,4.544l11.156,6.818l-4.431,4.024c-4.166,0.134-8.022-0.544-11.299-1.846
		C54.691,101.37,56.405,95.33,56.625,88.721z M63.812,109.323c-4.681,0.221-9.091-0.551-12.81-2.112
		c-3.612,5.626-8.734,9.138-14.415,9.138c-10.939,0-19.806-13.021-19.806-29.083c0-1.73,0.102-3.424,0.3-5.071l4.797,8.136
		l8.762-10.621l3.033,13.97l8.86-16.359l2.016,4.567c2.865-3.256,6.943-5.972,11.793-7.688l11.248,4.178l-11.209,7.93l0.01,0.867
		l14.531,5.314L59.52,97.349l10.446,6.384L63.812,109.323z M93.338,89.638c0-4.256,0.758-7.706,1.694-7.706
		c0.935,0,1.693,3.45,1.693,7.706s-0.758,7.706-1.693,7.706C94.097,97.344,93.338,93.894,93.338,89.638z M101.744,89.404
		c0-4.256,0.758-7.706,1.693-7.706c0.936,0,1.694,3.45,1.694,7.706s-0.758,7.706-1.694,7.706
		C102.502,97.11,101.744,93.66,101.744,89.404z M122.233,40.465l0.201-0.847c-0.821,0.958-1.752,1.844-2.725,2.379
		c-3.066,1.686-6.213,2.721-11.529,2.351c-4.806-0.334-7.026,0.879-7.37,1.152c-0.306,0.243-1.322,1.939-1.65,4.054
		c-0.263,1.693-0.198,4.232-0.003,6.021c0.47,0.044,1.08,0.086,1.793,0.096c1.766,0.023,4.136-0.145,6.586-0.902
		C112.565,53.215,120.165,48.627,122.233,40.465z M88.227,35.987c-0.695-0.833,1.367-1.498,3.231-1.61
		c1.864-0.112,4.912,1.792,4.912,1.792s0.057,1.548,0.564,3.994c0.202,0.972,0.956,3.435,1.793,6.05
		c-0.676,1.106-1.197,2.652-1.31,3.871c-0.151,1.634,0.206,3.889,0.388,4.919l0.32,1.718l-0.581-1.793
		c-2.639-9.894-5.212-14.879-6.228-16.212C90.314,37.402,88.296,36.071,88.227,35.987z M121.642,66.211
		c-1.167,0.166-2.587,0.181-3.95-0.29c-3.265-1.13-5.876-2.134-10.546-2.009c-4.67,0.126-4.47,2.938-8.538,3.139
		c-4.068,0.201-8.939-0.603-11.274-2.737c-1.96-1.791-6.696-0.858-10.217,0.318c1.245,1.233,3.518,3.542,4.564,4.649
		c2.511,2.66,5.641,6.28,6.15,8.732c0.407,1.959,1.207,6.609,1.699,11.132c0.249,2.29,0.419,4.547,0.424,6.415
		c0.004,1.761-0.121,3.617-0.758,4.74c-1.538,2.71-7.424,8.789-10.781,12.188c-0.174-0.006-0.253-0.015-0.253-0.02
		c0.001-0.021,1.625,0.031,3.514,0.685c3.265,1.13,5.876,2.134,10.546,2.008c4.671-0.126,4.47-2.938,8.538-3.138
		c4.068-0.201,8.939,0.603,11.274,2.737c2.05,1.874,7.161,0.787,10.717-0.462c-1.113-0.892-3.543-2.788-4.512-3.643
		c-2.604-2.298-5.741-5.329-7.153-7.819c-1.82-3.207-3.717-18.935,1.364-25.454C114.165,75.182,118.641,69.784,121.642,66.211z
		 M75.451,65.3c1.254-5.128,7.294-9.332,15.681-11.077c3.118-0.076,3.536,0.307,5.522,1.144c0.467,0.197,1.442,1.087,1.482,1.458
		c0.544,0.052,1.249,0.099,2.076,0.11c2.044,0.028,4.788-0.167,7.624-1.044c0.902-0.278,1.876-0.642,2.887-1.092
		c7.05,1.961,12.188,5.751,13.432,10.26c-3.654,4.79-8.069,10.151-10.497,13.266c-4.58,5.876-2.864,20.893-1.24,23.754
		c2.536,4.47,11.823,11.512,11.816,11.54c-1.098,4.488-6.137,8.42-12.971,10.466c-0.862,0.256-1.683,0.469-2.527,0.657l-0.902,0.045
		c-2.893,0.07-3.311-0.314-5.298-1.15c-1.808-0.762-3.59,0.279-4.183,0.558c-1.163,0.548-3.782,0.634-5.786,0.732
		c-0.526,0.026-1.029-0.005-1.515-0.071c-8.274-1.713-14.159-5.27-15.822-10.256c0,0,0.163-1.1,0.881-1.706
		c1.73-1.829,9.556-9.486,11.749-13.351c1.624-2.862-0.729-17.351-1.532-21.218C85.527,74.464,75.381,65.195,75.451,65.3z"/>
</g>
</svg>
