<?xml version="1.0" encoding="utf-8"?>
<!-- Generator: Adobe Illustrator 27.4.1, SVG Export Plug-In . SVG Version: 6.00 Build 0)  -->
<svg version="1.1" id="Calque_1" xmlns="http://www.w3.org/2000/svg" xmlns:xlink="http://www.w3.org/1999/xlink" x="0px" y="0px"
	 viewBox="0 0 141.732 141.732" enable-background="new 0 0 141.732 141.732" xml:space="preserve">
<path fill-rule="evenodd" clip-rule="evenodd" fill="#FFFFFF" d="M129.261,1.054c6.337,0,11.473,5.136,11.473,11.473v116.68
	c0,6.336-5.137,11.473-11.473,11.473H12.471c-6.336,0-11.473-5.136-11.473-11.473V12.526c0-6.337,5.137-11.473,11.473-11.473
	H129.261z"/>
<g>
	<rect x="81.023" y="39.16" transform="matrix(0.9993 0.0374 -0.0374 0.9993 1.5561 -3.6061)" width="32.481" height="1.342"/>
	<rect x="80.708" y="47.576" transform="matrix(0.9993 0.0374 -0.0374 0.9993 1.8703 -3.5885)" width="32.481" height="1.342"/>
	<rect x="80.394" y="55.992" transform="matrix(0.9993 0.0374 -0.0374 0.9993 2.1845 -3.5709)" width="32.481" height="1.342"/>
	<rect x="80.079" y="64.409" transform="matrix(0.9993 0.0374 -0.0374 0.9993 2.4988 -3.5532)" width="32.481" height="1.342"/>
	<g>
		<path d="M128.659,0.085H13.073c-7.152,0-12.95,5.805-12.95,12.967V128.68c0,7.161,5.798,12.967,12.95,12.967h115.586
			c7.152,0,12.95-5.805,12.95-12.967V13.052C141.609,5.89,135.811,0.085,128.659,0.085z M140.013,128.68
			c0,6.279-5.084,11.369-11.355,11.369H13.073c-6.271,0-11.355-5.09-11.355-11.369V13.052c0-6.279,5.084-11.369,11.355-11.369
			h115.586c6.271,0,11.355,5.09,11.355,11.369V128.68z"/>
		<path d="M23.624,9.828h-2.89l-3.221,13.878h2.724l0.497-2.338h2.779l0.515,2.338h2.927L23.624,9.828z M21.176,19.196l0.589-3.7
			l0.294-2.098l0.35,2.098l0.699,3.7H21.176z"/>
		<path d="M13.157,9.828h-2.853v13.878h2.742v-5.724l0.608,0.037c2.54,0,4.215-1.491,4.215-4.086
			C17.869,9.46,13.746,9.828,13.157,9.828z M13.046,15.755v-3.663h0.515c1.178,0,1.564,0.81,1.564,1.804
			C15.126,15.313,14.371,15.81,13.046,15.755z"/>
		<rect x="37.014" y="9.828" width="2.742" height="13.878"/>
		<polygon points="47.449,21.129 44.632,21.129 44.632,18 47.08,18 47.08,15.423 44.632,15.423 44.632,12.405 47.412,12.405 
			47.412,9.828 41.89,9.828 41.89,23.706 47.449,23.706 		"/>
		<path d="M57.363,23.706l-2.411-6.313c1.362-0.755,1.969-2.061,1.969-3.589c0-3.792-3.129-3.976-4.878-3.976h-2.761v13.878h2.743
			v-6.405l2.448,6.405H57.363z M52.504,15.81l-0.479-0.018v-3.7h0.368c1.38-0.074,1.859,0.736,1.859,1.73
			C54.252,14.963,53.755,15.81,52.504,15.81z"/>
		<path d="M30.798,17.982l0.607,0.037c2.54,0,4.215-1.491,4.215-4.086c0-4.473-4.123-4.105-4.712-4.105h-2.853v13.878h2.743V17.982z
			 M30.798,12.092h0.515c1.178,0,1.565,0.81,1.565,1.804c0,1.417-0.755,1.914-2.08,1.859V12.092z"/>
	</g>
	<g>
		<polygon points="38.728,82.435 78.862,107.135 80.545,106.156 40.411,81.456 		"/>
		<polygon points="54.96,98.162 73.779,110.091 75.463,109.112 56.643,97.183 		"/>
		<polygon points="49.878,101.118 68.697,113.047 70.381,112.068 51.561,100.139 		"/>
		<polygon points="44.796,104.075 63.615,116.003 65.298,115.024 46.479,103.095 		"/>
		<polygon points="18.399,94.259 58.397,119.095 60.08,118.116 20.083,93.28 		"/>
		<path d="M35.329,84.412l-0.165,0.096l-1.518,0.883l-8.481,4.933l-1.683,0.979l1.385,0.83l16.457,9.861l1.385,0.83l1.683-0.979
			l8.481-4.933l1.518-0.883l0.165-0.096L35.329,84.412z M43.007,101.015L26.55,91.154l8.481-4.933l16.457,9.861L43.007,101.015z"/>
		<polygon points="46.145,78.095 86.686,102.523 91.315,99.831 50.774,75.402 		"/>
	</g>
	<path d="M105.938,89.347l22.303,0.834l2.374-63.485l-4.878-0.182l0.197-5.282l-48.241-1.804l-0.328,8.774l-3.866-0.145
		l-0.193,5.171L22.376,42.29l6.557,36.049l10.194-1.918c-10.615,5.782-23.411,12.796-26.552,14.708
		c-2.991,1.821-3.361,6.625,0.215,8.986l49.727,31.968c-0.003-0.008,3.017,1.708,6.361-0.064
		c4.733-2.508,37.459-23.137,40.014-24.892c3.8-2.61-0.005-7.705-4.491-5.014c-4.486,2.691-38.527,23.068-38.527,23.068
		c-1.21,0.718-0.639,2.048,0.706,1.272c0,0,33.774-20.447,38.336-23.007c3.788-2.125,5.384,1.406,2.102,3.333
		c-2.674,1.57-33.585,21.164-38.967,23.722c-2.767,1.315-4.711,0.499-6.643-1.022c-1.289-1.015-1.922-4.393,1.035-6.381
		c4.925-3.311,42.473-25.455,42.473-25.455l-8.853-5.166l5.584,0.209L105.938,89.347z M129.22,28.065l-2.274,60.819l-19.476-0.728
		l4.959-3.856l11.131,0.416l2.123-56.783L129.22,28.065z M78.982,20.897L124.54,22.6l-2.274,60.819l-8.304-0.31l5.961-4.635
		l1.818-48.614l-43.033-1.609L78.982,20.897z M61.373,72.233l10.548-1.985l-0.298,7.966L61.373,72.233z M72.356,58.624l-9.76-5.486
		l10.403-11.718L72.356,58.624z M73.254,34.61l-0.177,4.741L54.5,60.03L25.042,43.306L73.254,34.61z M24.224,44.306l21.981,12.569
		l-16.36,18.591L24.224,44.306z M30.87,76.325l16.52-18.773l7.486,4.281l6.811-7.671L72.3,60.128l-0.328,8.784l-12.444,2.245
		l-5.16-3.01c0,0-4.656,2.518-10.886,5.905L30.87,76.325z M62.016,121.427c-1.228,0.806-4.053,2.743-3.199,6.395L14.591,99.521
		c-3.333-2.018-3.632-5.856,0.119-7.929L54.568,69.65l47.502,27.998C102.07,97.648,68.949,116.879,62.016,121.427z M100.109,91.377
		l-6.331-0.237L72.938,78.981l1.849-49.455l45.558,1.703l-1.714,45.853l-17.963-0.672L100.109,91.377z M101.915,77.628l16.326,0.61
		l-16.836,13.014L101.915,77.628z"/>
</g>
</svg>
