<?xml version="1.0" encoding="utf-8"?>
<!-- Generator: Adobe Illustrator 27.4.1, SVG Export Plug-In . SVG Version: 6.00 Build 0)  -->
<svg version="1.1" id="Calque_1" xmlns="http://www.w3.org/2000/svg" xmlns:xlink="http://www.w3.org/1999/xlink" x="0px" y="0px"
	 viewBox="0 0 141.73 141.73" enable-background="new 0 0 141.73 141.73" xml:space="preserve">
<g>
	<path fill-rule="evenodd" clip-rule="evenodd" fill="#FFFFFF" d="M129.52,1.285c6.332,0,11.464,5.133,11.464,11.464v116.59
		c0,6.331-5.132,11.464-11.464,11.464H12.82c-6.331,0-11.464-5.133-11.464-11.464V12.75c0-6.332,5.132-11.464,11.464-11.464H129.52z
		"/>
	<path fill-rule="evenodd" clip-rule="evenodd" d="M128.785,1.998c6.269,0,11.351,5.082,11.351,11.35v115.436
		c0,6.269-5.082,11.351-11.351,11.351H13.24c-6.269,0-11.351-5.082-11.351-11.351V13.348c0-6.268,5.082-11.35,11.351-11.35H128.785z
		 M13.24,0.403h115.545c7.149,0,12.945,5.796,12.945,12.945v115.436c0,7.15-5.796,12.946-12.945,12.946H13.24
		c-7.15,0-12.946-5.796-12.946-12.946V13.348C0.294,6.199,6.09,0.403,13.24,0.403z M39.998,129.189
		c-0.752,0-2.784-1.177-3.943-1.896c0.4-0.754,0.702-1.531,1.034-2.258c0.329-0.72,0.686-1.379,1.22-1.95
		c-1.048,0.232-1.339,0.865-1.678,1.616c-0.333,0.736-0.649,1.513-1.057,2.278c-0.21,0.396-0.432,0.795-0.677,1.191
		c-1.163,1.903-1.903,1.612-2.999,1.612l-1.231-0.044h-1.193c-1.098,0-1.731,0.278-2.898-1.616
		c-0.219-0.354-0.412-0.717-0.603-1.072c-0.415-0.774-0.718-1.583-1.051-2.341c-0.336-0.765-0.719-1.503-1.274-2.093
		c0.069,0.984,0.429,1.676,0.756,2.422c0.325,0.741,0.62,1.532,1.02,2.29c-1.167,0.722-3.126,1.861-3.849,1.861
		c-1.073,0-3.904-1.073-4.286-4.385c0,0-1.177-7.117-0.887-8.188c0.29-1.081,0.29-1.319,0.29-1.319v-3.743H44.87v3.743
		c0,0,0,0.238,0.293,1.319c0.297,1.07-0.88,8.188-0.88,8.188C43.891,128.116,41.071,129.189,39.998,129.189z M61.099,129.092h67.379
		V13.151H61.17L61.099,129.092z M94.636,47.731c-0.111,2.141-1.936,3.774-4.062,3.661c-0.863-0.044-1.65-0.37-2.267-0.88
		L75.269,37.397c-0.573-0.613-0.914-1.443-0.866-2.346c0.052-0.903,0.475-1.675,1.114-2.212l14.331-11.694
		c0.671-0.439,1.479-0.68,2.346-0.638c2.128,0.107,3.763,1.934,3.657,4.066l-0.136,2.505c4.253,0.113,8.539,1.127,12.598,3.111
		c15.311,7.458,21.655,25.91,14.199,41.21c-7.466,15.301-25.913,21.653-41.223,14.19c-15.293-7.46-21.651-25.91-14.185-41.215
		l0.628-1.269c1.064-2.187,2.764-0.516,2.764-0.516s8.261,8.288,9.639,9.774c1.181,1.28,0.705,3.12,0.705,3.12
		c-1.037,6.055,1.967,12.307,7.757,15.133c7.036,3.436,15.51,0.512,18.945-6.519c3.427-7.027,0.504-15.512-6.526-18.939
		c-1.995-0.97-4.094-1.432-6.167-1.432L94.636,47.731z M36.571,20.687H24.997v-6.271c0-0.696,0.612-1.261,1.372-1.261h8.835
		c0.753,0,1.368,0.564,1.368,1.261V20.687z M37.253,22.652c0,0.37-0.276,0.667-0.625,0.667H24.934c-0.345,0-0.621-0.297-0.621-0.667
		c0-0.366,0.276-0.661,0.621-0.661h11.694C36.977,21.991,37.253,22.286,37.253,22.652z M65.178,97.439h10.813
		c5.838,0,9.873,2.702,9.873,8.94c0,6.411-3.46,9.218-9.622,9.218h-3.999v9.007h-7.065V97.439z M72.243,109.907h1.191
		c2.557,0,5.079,0,5.079-3.312c0-3.425-2.339-3.464-5.079-3.464h-1.191V109.907z M95.031,103.421v4.541h7.958v5.978h-7.958v4.686
		h8.395v5.979H87.972V97.439h15.454v5.982H95.031z M118.852,124.605h-7.061v-21.184h-5.84v-5.982h18.736v5.982h-5.835V124.605z
		 M44.87,65.474v-8.98c-0.979-9.043-0.836-9.314-3.506-16.758c-2.73-7.594-5.846-12.675-5.846-12.675v-2.369h-9.472v2.369
		c0,0-3.122,5.081-5.84,12.675c-2.674,7.443-2.525,7.715-3.515,16.758v8.98H44.87z M16.691,67.713H44.87v41.604H16.691V67.713z"/>
</g>
</svg>
