<?xml version="1.0" encoding="utf-8"?>
<!-- Generator: Adobe Illustrator 27.4.1, SVG Export Plug-In . SVG Version: 6.00 Build 0)  -->
<svg version="1.1" id="Calque_1" xmlns="http://www.w3.org/2000/svg" xmlns:xlink="http://www.w3.org/1999/xlink" x="0px" y="0px"
	 viewBox="0 0 141.73 141.73" enable-background="new 0 0 141.73 141.73" xml:space="preserve">
<g>
	<path fill-rule="evenodd" clip-rule="evenodd" fill="#FFFFFF" d="M129.352,1.2c6.337,0,11.473,5.136,11.473,11.473v116.68
		c0,6.336-5.137,11.473-11.473,11.473H12.562c-6.336,0-11.473-5.136-11.473-11.473V12.672C1.09,6.336,6.227,1.2,12.562,1.2H129.352z
		"/>
	<path fill-rule="evenodd" clip-rule="evenodd" d="M74.475,115.325h7.905v-7.905h2.528v7.905h7.905v2.528h-7.905v7.905H82.38v-7.905
		h-7.905V115.325z M71.294,116.589c0,6.821,5.529,12.35,12.35,12.35s12.35-5.529,12.35-12.35c0-6.821-5.529-12.351-12.35-12.351
		S71.294,109.768,71.294,116.589z M94.767,76.914h25.88v45.624h-23.4c0.798-1.821,1.24-3.834,1.24-5.949
		c0-3.77-1.405-7.211-3.72-9.829V76.914z M65.768,126.887c-1.799,2.802-4.943,4.659-8.52,4.659c-3.578,0-6.722-1.856-8.521-4.659
		H22.017c-2.752,0-4.982-2.23-4.982-4.982V47.179h6.46l18.644-29.835c0.583-0.934,1.797-1.228,2.71-0.657
		c0.914,0.571,1.181,1.791,0.598,2.724L28.095,47.179h41.538l-9.869-9.869c-0.778-0.778-0.792-2.027-0.03-2.789
		s2.01-0.748,2.788,0.03l12.334,12.334c0.092,0.092,0.173,0.19,0.243,0.293h6.073v54.794c0.804-0.135,1.629-0.205,2.471-0.205
		c2.542,0,4.935,0.64,7.025,1.767V73.913c0-0.55,0.446-0.995,0.995-0.995h31.96c0.549,0,0.995,0.445,0.995,0.995v51.548
		c0,0.549-0.445,0.995-0.995,0.995H94.703c-2.714,3.039-6.663,4.953-11.058,4.953c-4.184,0-7.962-1.733-10.657-4.521H65.768z
		 M47.13,121.428c0-5.588,4.53-10.118,10.118-10.118c5.588,0,10.118,4.53,10.118,10.118c0,0.5-0.036,0.991-0.106,1.472h2.972
		c-0.902-1.915-1.407-4.055-1.407-6.312c0-5.87,3.413-10.943,8.362-13.343v-52.08H21.021v70.739c0,0.549,0.445,0.995,0.995,0.995
		h25.22C47.166,122.419,47.13,121.928,47.13,121.428z M49.753,121.428c0,4.14,3.356,7.495,7.495,7.495
		c4.14,0,7.495-3.356,7.495-7.495c0-4.139-3.355-7.495-7.495-7.495C53.108,113.933,49.753,117.289,49.753,121.428z M102.507,67.691
		h10.275c1.101,0,1.993,0.893,1.993,1.993V71.3h-14.262v-1.616C100.514,68.584,101.406,67.691,102.507,67.691z M51.414,120.312
		h11.668v2.232H51.414V120.312z M131.571,10.664c-0.756-0.443-1.55-0.683-2.436-0.683c-2.362,0-3.636,1.9-3.636,4.097
		c0,2.03,0.978,3.063,2.565,4.133c0.775,0.554,1.624,0.96,1.624,2.03c0,0.922-0.701,1.513-1.587,1.513
		c-0.812,0-1.44-0.295-2.085-0.738v2.621c0.627,0.461,1.587,0.701,2.362,0.701c2.583,0,4.005-1.864,4.005-4.337
		c0-3.764-4.189-3.894-4.189-6.182c0-0.849,0.535-1.366,1.384-1.366c0.756,0,1.439,0.406,1.993,0.886V10.664z M118.254,10.203
		v13.914h5.573v-2.583h-2.823v-3.137h2.455v-2.584h-2.455v-3.026h2.787v-2.583H118.254z M111.006,10.203v13.914h5.628v-2.583h-2.879
		V10.203H111.006z M105.748,10.203v13.914h2.75V10.203H105.748z M99.147,12.473h0.517c1.181,0,1.568,0.812,1.568,1.808
		c0,1.421-0.756,1.919-2.085,1.864V12.473z M99.147,24.117v-5.739l0.609,0.037c2.546,0,4.226-1.495,4.226-4.097
		c0-4.484-4.134-4.115-4.725-4.115h-2.86v13.914H99.147z M13.141,0.294h115.634c7.155,0,12.956,5.8,12.956,12.955v115.525
		c0,7.155-5.8,12.955-12.956,12.955H13.141c-7.155,0-12.955-5.8-12.955-12.955V13.25C0.185,6.094,5.985,0.294,13.141,0.294z
		 M128.775,1.89c6.273,0,11.359,5.086,11.359,11.359v115.525c0,6.273-5.086,11.359-11.359,11.359H13.141
		c-6.274,0-11.359-5.085-11.359-11.359V13.25c0-6.273,5.085-11.359,11.359-11.359H128.775z"/>
</g>
</svg>
