<?xml version="1.0" encoding="utf-8"?>
<!-- Generator: Adobe Illustrator 27.4.1, SVG Export Plug-In . SVG Version: 6.00 Build 0)  -->
<svg version="1.1" id="Calque_1" xmlns="http://www.w3.org/2000/svg" xmlns:xlink="http://www.w3.org/1999/xlink" x="0px" y="0px"
	 viewBox="0 0 141.73 141.73" enable-background="new 0 0 141.73 141.73" xml:space="preserve">
<g>
	<path fill-rule="evenodd" clip-rule="evenodd" fill="#FFFFFF" d="M129.352,1.2c6.337,0,11.473,5.136,11.473,11.473v116.68
		c0,6.336-5.137,11.473-11.473,11.473H12.562c-6.336,0-11.473-5.136-11.473-11.473V12.672C1.09,6.336,6.227,1.2,12.562,1.2H129.352z
		"/>
	<path fill-rule="evenodd" clip-rule="evenodd" d="M43.649,24.729c0.566,2.897,1.147,7.402,1.497,12.4
		c0.354,5.07,0.445,9.633,0.315,12.544l-2.761,55.984l28.588,0.179l28.377-0.178L96.9,49.677c-0.083-2.92,0.008-7.48,0.362-12.548
		c0.349-4.989,0.928-9.487,1.493-12.384l-8.361-1.264c-3.004,5.481-11.54,8.41-19.099,8.41c-7.569,0-16.127-2.94-19.116-8.443
		L43.649,24.729z M121.666,28.208l-21.53-3.253c-0.558,2.9-1.127,7.347-1.472,12.273c-0.341,4.879-0.438,9.289-0.33,12.208
		l20.645-3.465c0.088-3.728,0.17-5.594,0.721-9.072C120.201,33.745,121.116,30.391,121.666,28.208z M56.454,22.934
		c2.624,2.921,8.283,5.175,14.841,5.175c6.71,0,12.48-2.36,15.02-5.38c-2.761,0.375-9.795,1.251-15.469,1.291
		C65.649,24.057,59.499,23.339,56.454,22.934z M87.694,19.258l39.208,5.803c-1.323,4.691-2.039,6.199-2.94,11.826
		c-0.751,4.686-0.878,7.625-0.911,12.226l-22.207,3.738l2.795,56.565l-32.327,0.203l-32.586-0.203l2.795-56.565
		c0,0-22.172-3.701-22.171-3.738c0.091-3.445-0.064-6.877-0.993-12.735c-1.053-6.633-2.945-11.338-2.945-11.338l39.484-5.815
		c0.729,0.164,9.201,1.543,16.111,1.493c7.227-0.052,16.659-1.458,16.659-1.458L87.694,19.258z M44.073,49.435
		c0.108-2.92,0.011-7.329-0.33-12.208c-0.345-4.936-0.916-9.391-1.475-12.291l-21.562,3.236c0.852,2.812,1.459,5.162,2.014,8.67
		c0.62,3.921,0.697,6.4,0.697,9.058L44.073,49.435z M99.872,117.981c-0.756-0.443-1.55-0.683-2.436-0.683
		c-2.362,0-3.636,1.9-3.636,4.097c0,2.03,0.978,3.063,2.565,4.134c0.775,0.553,1.624,0.96,1.624,2.03
		c0,0.922-0.702,1.513-1.587,1.513c-0.812,0-1.439-0.295-2.085-0.738v2.621c0.628,0.461,1.587,0.701,2.362,0.701
		c2.583,0,4.004-1.864,4.004-4.337c0-3.764-4.189-3.894-4.189-6.182c0-0.849,0.535-1.365,1.384-1.365
		c0.756,0,1.439,0.406,1.993,0.886V117.981z M86.74,117.52v13.914h5.573v-2.583h-2.824v-3.137h2.455v-2.583h-2.455v-3.026h2.787
		v-2.583H86.74z M79.676,117.52v13.914h5.628v-2.583h-2.879V117.52H79.676z M74.788,117.52v13.914h2.749V117.52H74.788z
		 M66.266,117.52v2.583h2.159v11.331h2.749v-11.331h2.178v-2.583H66.266z M56.431,117.52l2.953,6.736l-2.953,7.178h3.101
		l0.812-2.214c0.24-0.701,0.406-1.384,0.609-2.085c0.221,0.701,0.388,1.384,0.646,2.085l0.886,2.214h3.192l-3.192-7.178l2.971-6.736
		h-2.971l-0.831,1.937c-0.258,0.702-0.48,1.403-0.627,2.123c-0.185-0.72-0.461-1.439-0.701-2.123l-0.793-1.937H56.431z
		 M49.591,117.52v13.914h5.573v-2.583h-2.823v-3.137h2.454v-2.583h-2.454v-3.026h2.787v-2.583H49.591z M41.069,117.52v2.583h2.159
		v11.331h2.75v-11.331h2.178v-2.583H41.069z M13.141,0.294h115.634c7.155,0,12.956,5.8,12.956,12.955v115.525
		c0,7.155-5.8,12.955-12.956,12.955H13.141c-7.155,0-12.955-5.8-12.955-12.955V13.25C0.185,6.094,5.985,0.294,13.141,0.294z
		 M128.775,1.89c6.273,0,11.359,5.086,11.359,11.359v115.525c0,6.273-5.086,11.359-11.359,11.359H13.141
		c-6.274,0-11.359-5.085-11.359-11.359V13.25c0-6.273,5.085-11.359,11.359-11.359H128.775z"/>
</g>
</svg>
