<?xml version="1.0" encoding="utf-8"?>
<!-- Generator: Adobe Illustrator 27.4.1, SVG Export Plug-In . SVG Version: 6.00 Build 0)  -->
<svg version="1.1" id="Calque_1" xmlns="http://www.w3.org/2000/svg" xmlns:xlink="http://www.w3.org/1999/xlink" x="0px" y="0px"
	 viewBox="0 0 141.73 141.73" enable-background="new 0 0 141.73 141.73" xml:space="preserve">
<g>
	<path fill-rule="evenodd" clip-rule="evenodd" fill="#FFFFFF" d="M129.167,1.2c6.336,0,11.473,5.136,11.473,11.473v116.68
		c0,6.336-5.137,11.473-11.473,11.473H12.377c-6.336,0-11.473-5.136-11.473-11.473V12.672C0.905,6.336,6.041,1.2,12.377,1.2H129.167
		z"/>
	<path fill-rule="evenodd" clip-rule="evenodd" d="M26.671,127.304c3.177-0.724,8.592-1.976,14.738-1.976
		c5.788,0,11.511,1.386,14.742,2.039l2.648,0.017c0.091,0,0.465-0.561,0.379-1.634l-0.004-63.11c0-6.966-1.613-10.046-5.222-12.008
		c-6.499-3.533-8.762-9.543-8.703-14.697c0.013-1.018,0.015-4.963,0.013-9.219l-0.003-4.126l1.824-0.636l0.001-8.501l-11.32-0.038
		v8.525l1.798,0.649v4.516v8.857c0,6.123-1.598,10.581-8.656,14.645c-3.623,2.087-5.27,5.121-5.27,12.034l-0.004,63.124
		c-0.099,1.07,0.266,1.621,0.379,1.621h2.608L26.671,127.304z M49.644,35.987c-0.044,3.83,1.587,8.164,6.407,10.783
		c5.636,3.064,7.519,8.135,7.519,15.87v62.952c0.008,0.142,0.018,0.419,0.002,0.776c-0.021,0.472-0.086,1.149-0.292,1.862
		c-0.413,1.433-1.629,3.55-4.481,3.55H46.671H36.139H24.011c-2.864,0-4.091-2.101-4.502-3.562c-0.203-0.718-0.262-1.399-0.277-1.873
		c-0.011-0.347,0-0.618,0.01-0.765V62.64c0-7.788,1.974-12.676,7.471-15.843c5.519-3.178,6.455-6.07,6.455-10.836v-9.664
		c-0.972-0.176-1.451-1.079-1.451-2.167V11.254c0-1.214,0.597-1.81,1.81-1.81h15.368c1.214,0,2.198,0.596,2.198,1.81V24.13
		c0,1.081-0.473,1.673-1.435,1.789C49.658,30.63,49.657,34.966,49.644,35.987z M12.956,0.294H128.59
		c7.155,0,12.956,5.8,12.956,12.955v115.525c0,7.155-5.8,12.955-12.956,12.955H12.956C5.8,141.73,0,135.93,0,128.775V13.25
		C0,6.094,5.8,0.294,12.956,0.294z M128.59,1.89c6.273,0,11.359,5.086,11.359,11.359v115.525c0,6.273-5.086,11.359-11.359,11.359
		H12.956c-6.274,0-11.359-5.085-11.359-11.359V13.25c0-6.273,5.085-11.359,11.359-11.359H128.59z M125.945,10.307v13.915h5.573
		v-2.583h-2.824v-3.137h2.455v-2.584h-2.455v-3.026h2.787v-2.583H125.945z M118.92,12.577h0.369
		c1.384-0.074,1.864,0.738,1.864,1.734c0,1.145-0.498,1.993-1.753,1.993l-0.48-0.019V12.577z M118.92,24.222v-6.422l2.454,6.422
		h2.898l-2.418-6.33c1.366-0.756,1.975-2.067,1.975-3.598c0-3.802-3.137-3.986-4.89-3.986h-2.769v13.915H118.92z M109.145,12.577
		h0.369c1.384-0.074,1.864,0.738,1.864,1.734c0,1.145-0.498,1.993-1.753,1.993l-0.48-0.019V12.577z M109.145,24.222v-6.422
		l2.455,6.422h2.897l-2.418-6.33c1.366-0.756,1.975-2.067,1.975-3.598c0-3.802-3.137-3.986-4.89-3.986h-2.768v13.915H109.145z
		 M98.8,10.307v13.915h5.573v-2.583h-2.823v-3.137h2.454v-2.584h-2.454v-3.026h2.787v-2.583H98.8z M87.545,10.307l4.023,13.915
		h2.251l3.857-13.915h-2.879l-1.679,6.644c-0.221,0.812-0.277,1.605-0.424,2.417c-0.203-0.794-0.295-1.587-0.535-2.38l-1.661-6.681
		H87.545z M83.243,61.468h0.231v-4.002l33.768-0.055l-0.001,4.057h0.282c1.156,0,1.724,0.854,1.724,1.908
		c0,1.053-0.568,1.907-1.724,1.907h-0.282l0,4.139c2.894,2.37,4.194,5.881,4.433,9.531l0.046,0.724l0.003,7.4v0.495l-0.003,31.017
		l-0.046,0.724c-0.44,6.73-5.89,12.09-12.661,12.385l-0.428,0.028l-11.357,0.002l-5.261-0.002l-0.482-0.031
		c-6.746-0.322-12.167-5.67-12.607-12.382l-0.046-0.724L78.83,85.102l0.002-5.424l0.046-0.724c0.24-3.674,1.775-7.229,4.595-9.585
		v-4.086h-0.231c-1.156,0-1.724-0.854-1.724-1.907C81.519,62.322,82.086,61.468,83.243,61.468z M113.055,71.606l0.001-10.002
		L87.66,61.646v9.872l-0.917,0.623c-2.136,1.451-3.489,4.06-3.687,7.09l-0.04,0.588v5.284v33.347l0.04,0.587
		c0.301,4.605,4.062,8.28,8.694,8.482l0.364,0.025h5.115h11.211l0.363-0.025c4.632-0.202,8.393-3.878,8.694-8.482l0.039-0.587
		V87.572v-0.495v-7.259l-0.039-0.587c-0.208-3.173-1.372-5.603-3.501-7.005L113.055,71.606z"/>
</g>
</svg>
